<svg xmlns="http://www.w3.org/2000/svg" viewBox="0 0 32 32" fill="none">
  <!-- Fire/Flame shape in purple gradient -->
  <defs>
    <linearGradient id="flameGradient" x1="0%" y1="0%" x2="0%" y2="100%">
      <stop offset="0%" style="stop-color:#a855f7;stop-opacity:1" />
      <stop offset="50%" style="stop-color:#9333ea;stop-opacity:1" />
      <stop offset="100%" style="stop-color:#7e22ce;stop-opacity:1" />
    </linearGradient>
  </defs>

  <!-- Main flame body -->
  <path d="M16 2 C12 6, 10 10, 10 14 C10 18, 11 20, 12 22 C10 20, 8 18, 8 15 C8 12, 9 10, 10 8 C8 10, 6 13, 6 16 C6 22, 10 28, 16 30 C22 28, 26 22, 26 16 C26 13, 24 10, 22 8 C23 10, 24 12, 24 15 C24 18, 22 20, 20 22 C21 20, 22 18, 22 14 C22 10, 20 6, 16 2 Z"
        fill="url(#flameGradient)"/>

  <!-- Inner highlight flame -->
  <path d="M16 8 C14 10, 13 12, 13 14 C13 16, 14 18, 16 19 C18 18, 19 16, 19 14 C19 12, 18 10, 16 8 Z"
        fill="#fbbf24" opacity="0.7"/>
</svg>
